<?xml version="1.0" encoding="utf-8"?>
<!-- Generator: Adobe Illustrator 19.2.1, SVG Export Plug-In . SVG Version: 6.00 Build 0)  -->
<svg version="1.1" id="Layer_1" xmlns="http://www.w3.org/2000/svg" xmlns:xlink="http://www.w3.org/1999/xlink" x="0px" y="0px"
	 width="313px" height="53px" viewBox="0 0 313 53" style="enable-background:new 0 0 313 53;" xml:space="preserve">
<style type="text/css">
	.st0{fill:#FFFFFF;}
</style>
<path class="st0" d="M15.1,52.2H0V1h26.1L56,39.2V1H71v51.3H45.5L15.1,13.3V52.2 M143.1,36.4c0,7.1-1.3,9.6-3.3,11.9
	c-3.2,3.5-7.8,4.6-16.8,4.6H97.3c-9,0-13.6-1.1-16.8-4.6c-2.1-2.4-3.3-4.8-3.3-11.9V16.6c0-7.1,1.3-9.6,3.3-11.9
	c3.2-3.5,7.9-4.6,16.8-4.6H123c9,0,13.6,1.1,16.8,4.6c2.1,2.4,3.3,4.8,3.3,11.9V36.4 M122.4,39.9c3.4,0,4.7-0.2,5.5-1
	c0.8-0.7,1.1-1.6,1.1-4.6V18.7c0-3-0.3-3.9-1.1-4.6c-0.8-0.8-2-1-5.5-1H97.9c-3.4,0-4.7,0.2-5.5,1c-0.8,0.7-1.1,1.6-1.1,4.6v15.6
	c0,3,0.3,3.9,1.1,4.6c0.8,0.8,2,1,5.5,1H122.4L122.4,39.9 M165,1v51.3h-15.7V1H165 M191.7,1h20.8l-28.1,24L216,52.2h-22.2L165,25.5
	L191.7,1 M218.9,1h15.8v51.3h-15.8 M294.7,52.2l-4.7-8.9h-30.5l-4.6,8.9h-17.4L265.5,1h19.6L313,52.2H294.7 M265.1,32.2h19.6
	l-9.8-18.6L265.1,32.2"/>
</svg>
