<svg version="1" xmlns="http://www.w3.org/2000/svg" width="853.333" height="853.333" viewBox="0 0 640.000000 640.000000"><path d="M221.8 95.5c-.3.3-4.9.7-10.4 1-5.4.3-11.5.7-13.4 1-1.9.3-5.1.7-7 .9-1.9.3-6 1-9 1.6-3 .6-6.6 1.3-8 1.6-1.4.3-3.3.7-4.2 1-.9.3-2.5.7-3.5.9-3.1.6-15.7 4.5-17.8 5.5-1.1.5-4.7 1.9-8 3.1-7.1 2.6-32.9 15.7-33.3 17-.2.5-1 .9-1.8.9s-1.4.4-1.4 1c0 .5-.5 1-1.1 1-1.3 0-8.3 4.9-19.4 13.8-36.4 28.9-64.4 72-76 117-1.4 5.6-2.8 11.5-3.1 13-.2 1.5-.7 3.8-1 5.2-2 8.9-3.2 25.6-2.9 43 .2 10.7.5 20.4.8 21.5.3 1.1.8 4.5 1.2 7.5.4 3 .9 6.4 1.2 7.5.2 1.1.6 3.1.9 4.5.2 1.4.7 3.6 1 5 .3 1.4.6 2.6.5 2.7 0 .2.5 1.7 1 3.5.6 1.8 1.2 4.4 1.5 5.7.3 1.3 1 3.4 1.6 4.5.6 1.2 1 2.1.9 2.1-.1 0 0 .7.2 1.5.3.8 1 3 1.6 4.8 1.3 4.1 10.3 25.5 11.1 26.2.3.3 2 3.4 3.9 7s5.1 9.1 7.2 12.2c2.2 3.1 3.9 6.1 3.9 6.7 0 .5.3 1.1.8 1.3.4.2 2.7 3 5.2 6.3 6.6 8.9 7.5 10 20 22.5 12.2 12.3 23.1 22 24.8 22 .6 0 1.2.4 1.4.9.4 1.1 18.4 13.1 19.7 13.1.5 0 1.1.3 1.3.8.5 1.1 22.1 11.7 30.8 15 13.7 5.3 32.9 10.6 42.4 11.7 2.8.4 5.3.8 5.6 1 1.5.9 16.9 1.9 30.7 2 8.4 0 15.3.2 15.3.5s2.3.5 5 .5c2.8 0 5-.3 5-.6s1.9-.3 4.3.1c2.4.3 5.4.3 6.8 0 1.3-.4 3.3-.4 4.3 0 1.1.4 3.7.4 5.8 0 2-.4 4-.5 4.2-.2.5.4 21.9.6 24.1.1.6-.1 1.5-.1 2 0 1 .2 33 .2 33 .1s2.8-.2 6.3-.3c3.4-.1 6.2 0 6.2.3s2.6.4 5.7.2c3.2-.2 7.6-.2 9.8-.1 2.2.1 4.6.1 5.3 0 2.3-.2 3.7-.2 15.2-.1 6.3.1 12 .1 12.5 0 .6-.1 1.5-.2 2-.1 2.4.5 32.9 0 33.6-.5.5-.3.9-.2.9.3 0 .4 2.3.8 5 .8 2.8 0 5-.3 5-.6s1.9-.3 4.3.1c2.4.3 5.4.3 6.8 0 1.3-.4 3.3-.4 4.3 0 1.1.4 3.7.4 5.8 0 2-.4 4-.5 4.2-.2.5.4 21.9.6 24.1.1.6-.1 1.5-.1 2 0 1.3.3 28.9.3 30.1 0 .5-.1 1.4-.1 1.9 0 2.4.5 32.9 0 33.6-.5.5-.3.9-.2.9.3 0 .4 2.3.8 5 .8 2.8 0 5-.3 5-.6s1.9-.3 4.3.1c2.4.3 5.4.3 6.8 0 1.3-.4 3.3-.4 4.3 0 1.1.4 3.7.4 5.8 0 2-.4 3.9-.5 4.2-.3.4.4 21.7.7 23.6.3.3 0 3.5-.2 7.1-.3 5.5-.2 7.3-.8 10.4-3.1 6.2-4.7 6.7-7.2 6.3-30-.3-18.9-.4-20.3-2.5-23.2-3.7-5.2-7-6.7-14.5-6.8-3.7-.1-6.8-.3-6.8-.6s-2.6-.4-5.7-.2c-3.2.2-7.6.2-9.8.1-2.2-.1-4.6-.1-5.2 0-2.4.2-3.8.2-15.3.1-6.3-.1-12-.1-12.5 0-.6.1-1.4.2-2 .1-2.4-.5-32.9 0-33.6.5-.5.3-.9.2-.9-.3 0-.4-2.2-.8-5-.8-2.7 0-5 .3-5 .6s-1.9.3-4.3-.1c-2.4-.3-5.4-.3-6.8 0-1.3.4-3.3.4-4.3 0-1.1-.4-3.7-.4-5.8 0-2 .4-4 .5-4.2.2-.5-.4-21.9-.6-24.1-.1-.6.1-1.4.1-2 0-1-.2-33-.2-33-.1s-2.8.2-6.3.3c-3.4.1-6.2 0-6.2-.3s-2.6-.4-5.7-.2c-3.2.2-7.6.2-9.8.1-2.2-.1-4.6-.1-5.2 0-1.8.1-3.5.2-13.8.1h-9l3-2.8c1.7-1.5 5.2-5.5 8-8.8 2.7-3.2 5.8-6.8 6.7-7.8 1-1.1 3-3.8 4.5-6 1.6-2.3 3.3-4.6 3.9-5.1 3.5-3.3 16.8-26.8 22.9-40.6 3-6.9 9-23.5 10.1-27.9.4-2 3.1-12.9 3.3-13.5 0-.3.1-.6.2-.8.3-1.1 1-4.8 1.4-7.7.3-1.9.7-4.6 1-6 1-5.4 1.5-10.9 2-19.8.2-5.1.7-9.7 1-10.2.3-.6.3-1-.2-1-.4 0-.8-4.6-.9-10.3-.1-17.1-3.2-37.1-8.1-53.4-.9-3.2-1.8-6-1.8-6.3-.1-.3-.4-1.2-.7-2-.4-.8-1.1-3-1.7-4.8-1.3-4.1-10.3-25.5-11.1-26.2-.3-.3-2-3.4-3.9-7s-5.1-9.1-7.2-12.2c-2.2-3.1-3.9-6.1-3.9-6.7 0-.5-.3-1.1-.7-1.3-.5-.2-2.8-3-5.3-6.3-12-16.2-27.2-31.3-44.5-44.4-4.4-3.4-8.5-6.5-9-6.9-.6-.5-1.5-1.1-2-1.3-2.5-1-16-9.5-16.3-10.1-.2-.5-.8-.8-1.3-.8-.6 0-5.2-2-10.2-4.3-5.1-2.4-12.3-5.6-16.2-7-10.8-4-11-4-11.5-4.2-.3 0-3.1-.9-6.3-1.8-3.2-1-10-2.6-15-3.7-8.3-1.7-12-2.3-21.2-3.6-1.6-.2-8.1-.6-14.3-.9-6.3-.3-11.7-.7-12.1-1-.5-.2-1-.2-1.3 0zM243.5 226c16.1 3.7 33.7 12.5 43.1 21.5 1.2 1.1 3.9 3.7 6 5.7 10.7 10.2 20.3 27.3 24.5 43.8 3.2 12.7 3.1 40-.2 46.2-.6 1-.8 1.8-.5 1.8.3 0-.3 2.4-1.3 5.2-8.9 25.6-28.4 47-52.7 57.6-5.9 2.6-11.1 4.2-21.9 6.9-3.8.9-26.6 1-31.3.1-2.6-.5-5.8-1.1-7.2-1.4-11.9-2.2-31.9-12.5-40.6-20.9-1.2-1.1-3.9-3.6-6-5.7-10.4-9.7-19.9-26.4-24-42-2.2-8.8-2.3-9.3-2.9-18.6-.3-4.6-.6-8.7-.6-9-.1-.4 0-.9.1-1.2.1-.3.3-2.1.4-4 .5-6.2 1.8-13.5 2.7-15.3.6-.9.8-1.7.5-1.7-.3 0 .3-2.4 1.3-5.3 8.5-24.5 28.1-46.5 50.6-56.7 6.4-2.8 15.5-6 15.5-5.4 0 .3.8.1 1.8-.5.9-.5 3.9-1.2 6.7-1.6 2.7-.3 5.1-.8 5.3-1 .9-.8 26 .4 30.7 1.5z"/><path d="M212.5 257.2c-2.2.4-4.7 1-5.5 1.1-3.6.8-17.1 7.1-20.5 9.7-6.5 5-15.3 15.4-18.7 22.1-3.8 7.7-5 10.4-5.4 12.9-.2.8-.7 3.4-1.2 5.8-1 4.3-.9 20.9.1 24.7 4.9 19.2 17.5 35.2 33.8 43.3 4.6 2.3 9.6 4.3 11.1 4.6 1.5.2 3.2.8 3.8 1.1.6.4 5.4.8 10.8 1 8.6.3 11.7 0 21.2-2.1 3.2-.7 16.5-7 19.3-9.2 6.9-5.4 15.5-15.5 18.9-22.3 3.8-7.7 5-10.4 5.4-12.9.2-.8.8-3.5 1.3-5.9 1-4.9.7-23.2-.4-25-.3-.6-.9-2.4-1.1-3.9-.3-1.5-2.3-6.5-4.6-11.1-7.3-14.7-21.2-26.6-37.8-32.1-7.2-2.4-23.4-3.3-30.5-1.8z"/></svg>